<svg id="Ebene_1" data-name="Ebene 1" xmlns="http://www.w3.org/2000/svg" width="16" height="16" viewBox="0 0 16 16">
  <defs>
    <style>
      .cls-1 {
        fill: #5a5a5a;
      }

      .cls-2 {
        fill: #4bb0ff;
      }
    </style>
  </defs>
  <path class="cls-1" d="M11.57,4.46a.91.91,0,0,1-.11-.22c-.05-.21,0-.42,0-.63s0-.31,0-.46a2.47,2.47,0,0,0-.26-1.34A3,3,0,0,0,8.59.05a1,1,0,0,0-.38,0H7.83a1,1,0,0,0-.38,0A3,3,0,0,0,4.92,1.81a2.47,2.47,0,0,0-.26,1.34c0,.15,0,.31,0,.46s0,.42,0,.63a.91.91,0,0,1-.11.22,1.27,1.27,0,0,0-.16,1.07.91.91,0,0,0,0,.33c0,.1.11.17.13.27a3.17,3.17,0,0,0,.34.66,1.85,1.85,0,0,0,.23.34,1.26,1.26,0,0,1,.26.45,3.18,3.18,0,0,0,.43.84,2.66,2.66,0,0,0,.67.79,2.52,2.52,0,0,0,.91.49,2.25,2.25,0,0,0,1.39,0,2.52,2.52,0,0,0,.91-.49,2.63,2.63,0,0,0,.66-.79,2.93,2.93,0,0,0,.44-.84A1.26,1.26,0,0,1,11,7.13a2.54,2.54,0,0,0,.23-.34,3.74,3.74,0,0,0,.34-.66c0-.1.1-.17.13-.27a1.19,1.19,0,0,0,0-.33A1.27,1.27,0,0,0,11.57,4.46ZM9.83,6a1.3,1.3,0,0,1-1-.23,1.14,1.14,0,0,1-.6-1c0-.09-.06-.13-.11-.19a.27.27,0,0,0-.12,0l-.11,0c0,.06-.11.1-.11.19a1.16,1.16,0,0,1-.6,1,1.3,1.3,0,0,1-1,.23.93.93,0,0,1-.77-1.05c0-.45.26-.66.74-.66H9.85c.48,0,.73.21.75.66A.93.93,0,0,1,9.83,6Z"/>
  <path class="cls-2" d="M9.83,6a1.3,1.3,0,0,1-1-.23,1.14,1.14,0,0,1-.6-1c0-.09-.06-.13-.11-.19l.06,0c.13,0,.15-.09.2-.17s0,0-.06,0H7.71s-.09,0-.06,0,.06.2.2.17l.06,0c0,.06-.11.1-.11.19a1.16,1.16,0,0,1-.6,1,1.3,1.3,0,0,1-1,.23.93.93,0,0,1-.77-1.05c0-.45.26-.66.74-.66H9.85c.48,0,.73.21.75.66A.93.93,0,0,1,9.83,6Z"/>
  <path class="cls-2" d="M8.4,4.38c-.05.08-.07.2-.2.17l-.06,0a.27.27,0,0,0-.12,0l-.11,0-.06,0c-.14,0-.15-.09-.2-.17s0,0,.06,0h.63S8.43,4.34,8.4,4.38Z"/>
  <path class="cls-1" d="M8.68,10.47c-.06.28-.11.56-.17.84,0,.06,0,.12-.11.12H7.65c-.09,0-.1-.06-.11-.12-.06-.28-.11-.56-.17-.84,0-.12,0-.14.12-.13H8.55C8.66,10.33,8.71,10.35,8.68,10.47Z"/>
  <path class="cls-1" d="M8.68,12.94a4.25,4.25,0,0,0-.29.56L8,14.13c-.12-.22-.24-.42-.36-.63a4.25,4.25,0,0,0-.29-.56.28.28,0,0,1,0-.22c.07-.27.13-.54.19-.81,0-.11.07-.14.18-.14h.63a.16.16,0,0,1,.18.14c.05.27.12.54.19.81A.33.33,0,0,1,8.68,12.94Z"/>
  <path class="cls-1" d="M15.73,14.13a.4.4,0,0,1-.26.41c-.24.12-.5.19-.74.29-.55.14-1.11.24-1.67.34-.83.1-1.67.16-2.51.22a3,3,0,0,1-.52,0c-.53,0-1.06,0-1.6,0H7.61c-.53,0-1.06,0-1.6,0a3.08,3.08,0,0,1-.52,0c-.83-.06-1.67-.12-2.5-.22-.56-.1-1.12-.2-1.67-.34-.25-.1-.5-.17-.74-.29a.4.4,0,0,1-.26-.41c0-.18,0-.35,0-.53l0,0a1.08,1.08,0,0,1,0-.77,4.5,4.5,0,0,1,1.1-2.06A6.66,6.66,0,0,1,3.91,9.12a7.29,7.29,0,0,1,1.37-.44c.19,0,.25,0,.26.21a9.74,9.74,0,0,0,.4,1.76,1,1,0,0,0,.12.38,11.22,11.22,0,0,0,.43,1.23c0,.08,0,.17.08.23.16.4.34.78.52,1.17a1.83,1.83,0,0,0,.13.24,4.34,4.34,0,0,0,.5.76c.12.13.21.18.3.16s.19,0,.3-.16a3.44,3.44,0,0,0,.5-.76A1.12,1.12,0,0,0,9,13.66c.19-.39.36-.77.52-1.17.08-.06.06-.15.09-.23.15-.41.31-.81.43-1.23a1,1,0,0,0,.12-.38,9.74,9.74,0,0,0,.4-1.76c0-.2.06-.25.26-.21a7.53,7.53,0,0,1,1.37.44,6.75,6.75,0,0,1,2.44,1.61,4.57,4.57,0,0,1,1.09,2.06,1.08,1.08,0,0,1,0,.77v0C15.72,13.78,15.72,14,15.73,14.13Z"/>
</svg>
