<svg id="Ebene_1" data-name="Ebene 1" xmlns="http://www.w3.org/2000/svg" width="16" height="16" viewBox="0 0 16 16">
  <defs>
    <style>
      .cls-1 {
        fill: #5a5a5a;
      }
    </style>
  </defs>
  <path class="cls-1" d="M11.76,5.57a.91.91,0,0,1,0,.33c0,.1-.11.18-.13.28a3.76,3.76,0,0,1-.34.66,1.91,1.91,0,0,1-.24.34,1.24,1.24,0,0,0-.25.45,3.43,3.43,0,0,1-.44.85,2.54,2.54,0,0,1-.67.79,2.66,2.66,0,0,1-.92.5,2.09,2.09,0,0,1-.7.11,2,2,0,0,1-.69-.11,2.7,2.7,0,0,1-.93-.5,2.65,2.65,0,0,1-.66-.79,3.12,3.12,0,0,1-.44-.85A1.26,1.26,0,0,0,5,7.18a1.91,1.91,0,0,1-.24-.34,4.58,4.58,0,0,1-.34-.66c0-.1-.1-.18-.13-.28a1.19,1.19,0,0,1,0-.33,1.29,1.29,0,0,1,.16-1.08.91.91,0,0,0,.11-.22c.05-.21,0-.43,0-.64s0-.31,0-.46a2.47,2.47,0,0,1,.26-1.34A3,3,0,0,1,7.45.05a1,1,0,0,1,.38,0h.38a1,1,0,0,1,.39,0,3,3,0,0,1,2.55,1.78,2.47,2.47,0,0,1,.26,1.34c0,.15,0,.31,0,.46s0,.43,0,.64a1.51,1.51,0,0,0,.11.22A1.33,1.33,0,0,1,11.76,5.57Z"/>
  <path class="cls-1" d="M15.44,14.77a.38.38,0,0,1-.24.4c-.24.11-.48.19-.72.28-.53.14-1.07.23-1.61.32-.8.1-1.61.17-2.41.23a2.79,2.79,0,0,1-.5,0l-1.54,0H7.63L6.08,16a2.8,2.8,0,0,1-.5,0c-.8-.06-1.61-.13-2.41-.23-.54-.09-1.08-.18-1.6-.32-.24-.09-.49-.17-.72-.28a.39.39,0,0,1-.25-.4c0-.16,0-.33,0-.5l0,0a1.13,1.13,0,0,1,0-.75,4.31,4.31,0,0,1,1.06-2A6.29,6.29,0,0,1,4.06,10a7.79,7.79,0,0,1,1.32-.42l.08,0h0l.16.11a4.38,4.38,0,0,0,4.8.05l.24-.14h0A7.58,7.58,0,0,1,12,10a6.33,6.33,0,0,1,2.36,1.56,4.29,4.29,0,0,1,1.05,2,1.07,1.07,0,0,1,0,.75s0,0,0,0C15.44,14.44,15.43,14.61,15.44,14.77Z"/>
  <path class="cls-1" d="M5.62,9.62l-.16-.11Z"/>
  <polygon class="cls-1" points="5.46 9.51 5.46 9.51 5.46 9.51 5.46 9.51"/>
  <path class="cls-1" d="M10.68,9.53h0l0,0Z"/>
</svg>
